<mxfile host="app.diagrams.net" agent="Mozilla/5.0 (Windows NT 10.0; Win64; x64) AppleWebKit/537.36 (KHTML, like Gecko) Chrome/134.0.0.0 Safari/537.36" version="26.1.0">
  <diagram name="第 1 页" id="su4k1ldmzeW5IhkEu7_q">
    <mxGraphModel dx="780" dy="444" grid="1" gridSize="10" guides="1" tooltips="1" connect="1" arrows="1" fold="1" page="1" pageScale="1" pageWidth="1169" pageHeight="827" math="0" shadow="0">
      <root>
        <mxCell id="0" />
        <mxCell id="1" parent="0" />
        <mxCell id="BSHCZzDnnlXFaa0tmxAZ-11" style="edgeStyle=orthogonalEdgeStyle;rounded=0;orthogonalLoop=1;jettySize=auto;html=1;fontFamily=Comic Sans MS;curved=1;" parent="1" source="BSHCZzDnnlXFaa0tmxAZ-1" target="BSHCZzDnnlXFaa0tmxAZ-10" edge="1">
          <mxGeometry relative="1" as="geometry" />
        </mxCell>
        <mxCell id="BSHCZzDnnlXFaa0tmxAZ-1" value="" style="shape=cylinder3;whiteSpace=wrap;html=1;boundedLbl=1;backgroundOutline=1;size=15;fontStyle=1;fontFamily=Comic Sans MS;fillColor=#ffe6cc;strokeColor=#d79b00;" parent="1" vertex="1">
          <mxGeometry x="214.5" y="210" width="40" height="60" as="geometry" />
        </mxCell>
        <mxCell id="BSHCZzDnnlXFaa0tmxAZ-3" value="&lt;b&gt;源数据库&lt;/b&gt;&lt;br&gt;&lt;div&gt;e.g. postgresql&lt;/div&gt;" style="text;html=1;align=center;verticalAlign=middle;whiteSpace=wrap;rounded=0;fontSize=14;fontFamily=Helvetica;" parent="1" vertex="1">
          <mxGeometry x="159.75" y="270" width="150.5" height="30" as="geometry" />
        </mxCell>
        <mxCell id="BSHCZzDnnlXFaa0tmxAZ-4" value="&lt;b&gt;目标数据库&lt;/b&gt;&lt;div&gt;e.g. Dameng&lt;/div&gt;" style="text;html=1;align=center;verticalAlign=middle;whiteSpace=wrap;rounded=0;fontSize=14;fontFamily=Helvetica;" parent="1" vertex="1">
          <mxGeometry x="501.25" y="270" width="122.5" height="30" as="geometry" />
        </mxCell>
        <mxCell id="BSHCZzDnnlXFaa0tmxAZ-13" style="edgeStyle=orthogonalEdgeStyle;rounded=0;orthogonalLoop=1;jettySize=auto;html=1;entryX=1;entryY=0.5;entryDx=0;entryDy=0;" parent="1" source="BSHCZzDnnlXFaa0tmxAZ-5" target="BSHCZzDnnlXFaa0tmxAZ-10" edge="1">
          <mxGeometry relative="1" as="geometry" />
        </mxCell>
        <mxCell id="BSHCZzDnnlXFaa0tmxAZ-19" style="edgeStyle=orthogonalEdgeStyle;rounded=0;orthogonalLoop=1;jettySize=auto;html=1;entryX=0.75;entryY=0;entryDx=0;entryDy=0;curved=1;" parent="1" source="BSHCZzDnnlXFaa0tmxAZ-5" target="BSHCZzDnnlXFaa0tmxAZ-14" edge="1">
          <mxGeometry relative="1" as="geometry" />
        </mxCell>
        <mxCell id="BSHCZzDnnlXFaa0tmxAZ-5" value="" style="shape=cylinder3;whiteSpace=wrap;html=1;boundedLbl=1;backgroundOutline=1;size=15;fontStyle=1;fontFamily=Comic Sans MS;fillColor=#fff2cc;strokeColor=#d6b656;" parent="1" vertex="1">
          <mxGeometry x="542.5" y="210" width="40" height="60" as="geometry" />
        </mxCell>
        <mxCell id="QXk6fbLhmlBQjmL-5vhj-3" style="edgeStyle=orthogonalEdgeStyle;rounded=0;orthogonalLoop=1;jettySize=auto;html=1;endArrow=none;startFill=1;startArrow=classic;" parent="1" source="BSHCZzDnnlXFaa0tmxAZ-6" target="QXk6fbLhmlBQjmL-5vhj-1" edge="1">
          <mxGeometry relative="1" as="geometry">
            <Array as="points">
              <mxPoint x="563" y="64" />
            </Array>
          </mxGeometry>
        </mxCell>
        <mxCell id="BSHCZzDnnlXFaa0tmxAZ-6" value="&lt;div&gt;&lt;b&gt;目标sql:&lt;/b&gt;&lt;/div&gt;&lt;i&gt;CREATE OR REPLACE PROCEDURE &quot;plt_omf_procedure&quot;.&quot;after_itemclass_create&quot;&lt;/i&gt;" style="rounded=1;whiteSpace=wrap;html=1;fontSize=14;align=left;fontFamily=Helvetica;fillColor=#fff2cc;strokeColor=#d6b656;" parent="1" vertex="1">
          <mxGeometry x="405" y="120" width="315" height="50" as="geometry" />
        </mxCell>
        <mxCell id="BSHCZzDnnlXFaa0tmxAZ-8" style="edgeStyle=orthogonalEdgeStyle;rounded=0;orthogonalLoop=1;jettySize=auto;html=1;fontFamily=Comic Sans MS;" parent="1" source="BSHCZzDnnlXFaa0tmxAZ-7" target="BSHCZzDnnlXFaa0tmxAZ-1" edge="1">
          <mxGeometry relative="1" as="geometry" />
        </mxCell>
        <mxCell id="QXk6fbLhmlBQjmL-5vhj-2" style="edgeStyle=orthogonalEdgeStyle;rounded=0;orthogonalLoop=1;jettySize=auto;html=1;" parent="1" source="BSHCZzDnnlXFaa0tmxAZ-7" target="QXk6fbLhmlBQjmL-5vhj-1" edge="1">
          <mxGeometry relative="1" as="geometry">
            <Array as="points">
              <mxPoint x="235" y="64" />
            </Array>
          </mxGeometry>
        </mxCell>
        <mxCell id="BSHCZzDnnlXFaa0tmxAZ-7" value="&lt;div&gt;&lt;b&gt;源sql:&lt;/b&gt;&lt;/div&gt;&lt;i&gt;CREATE FUNCTION plt_omf_procedure.after_itemclass_create&lt;/i&gt;" style="rounded=1;whiteSpace=wrap;html=1;fontSize=14;align=left;fontFamily=Helvetica;fillColor=#ffe6cc;strokeColor=#d79b00;" parent="1" vertex="1">
          <mxGeometry x="90" y="120" width="290" height="50" as="geometry" />
        </mxCell>
        <mxCell id="BSHCZzDnnlXFaa0tmxAZ-9" style="edgeStyle=orthogonalEdgeStyle;rounded=0;orthogonalLoop=1;jettySize=auto;html=1;entryX=0.5;entryY=0;entryDx=0;entryDy=0;entryPerimeter=0;fontFamily=Comic Sans MS;" parent="1" source="BSHCZzDnnlXFaa0tmxAZ-6" target="BSHCZzDnnlXFaa0tmxAZ-5" edge="1">
          <mxGeometry relative="1" as="geometry" />
        </mxCell>
        <mxCell id="BSHCZzDnnlXFaa0tmxAZ-15" style="edgeStyle=orthogonalEdgeStyle;rounded=0;orthogonalLoop=1;jettySize=auto;html=1;entryX=0.5;entryY=0;entryDx=0;entryDy=0;" parent="1" source="BSHCZzDnnlXFaa0tmxAZ-10" target="BSHCZzDnnlXFaa0tmxAZ-14" edge="1">
          <mxGeometry relative="1" as="geometry" />
        </mxCell>
        <mxCell id="BSHCZzDnnlXFaa0tmxAZ-10" value="&lt;div style=&quot;text-align: start;&quot;&gt;&lt;font color=&quot;#404040&quot;&gt;&lt;span style=&quot;font-size: 16.002px;&quot;&gt;比较器&lt;/span&gt;&lt;/font&gt;&lt;/div&gt;" style="rounded=1;whiteSpace=wrap;html=1;fontFamily=Helvetica;fontStyle=1;fillColor=#f8cecc;strokeColor=#b85450;" parent="1" vertex="1">
          <mxGeometry x="350" y="220" width="85" height="40" as="geometry" />
        </mxCell>
        <mxCell id="BSHCZzDnnlXFaa0tmxAZ-17" style="edgeStyle=orthogonalEdgeStyle;rounded=0;orthogonalLoop=1;jettySize=auto;html=1;entryX=0.75;entryY=1;entryDx=0;entryDy=0;" parent="1" source="BSHCZzDnnlXFaa0tmxAZ-14" target="BSHCZzDnnlXFaa0tmxAZ-6" edge="1">
          <mxGeometry relative="1" as="geometry">
            <Array as="points">
              <mxPoint x="641" y="330" />
            </Array>
          </mxGeometry>
        </mxCell>
        <mxCell id="BSHCZzDnnlXFaa0tmxAZ-14" value="&lt;div style=&quot;text-align: start;&quot;&gt;&lt;span style=&quot;background-color: transparent; font-size: 16.002px;&quot;&gt;&lt;font color=&quot;#404040&quot;&gt;DBApdater&lt;/font&gt;&lt;/span&gt;&lt;/div&gt;" style="rounded=1;whiteSpace=wrap;html=1;fontFamily=Helvetica;fontStyle=1;fillColor=#f8cecc;strokeColor=#b85450;" parent="1" vertex="1">
          <mxGeometry x="342.5" y="310" width="100" height="40" as="geometry" />
        </mxCell>
        <mxCell id="BSHCZzDnnlXFaa0tmxAZ-16" style="edgeStyle=orthogonalEdgeStyle;rounded=0;orthogonalLoop=1;jettySize=auto;html=1;entryX=0.099;entryY=0.976;entryDx=0;entryDy=0;entryPerimeter=0;" parent="1" source="BSHCZzDnnlXFaa0tmxAZ-14" target="BSHCZzDnnlXFaa0tmxAZ-7" edge="1">
          <mxGeometry relative="1" as="geometry">
            <Array as="points">
              <mxPoint x="119" y="330" />
            </Array>
          </mxGeometry>
        </mxCell>
        <mxCell id="BSHCZzDnnlXFaa0tmxAZ-18" value="报错信息" style="text;html=1;align=center;verticalAlign=middle;whiteSpace=wrap;rounded=0;fontSize=14;fontFamily=Helvetica;" parent="1" vertex="1">
          <mxGeometry x="422.5" y="270" width="60" height="30" as="geometry" />
        </mxCell>
        <mxCell id="BSHCZzDnnlXFaa0tmxAZ-20" value="元数据" style="text;html=1;align=center;verticalAlign=middle;whiteSpace=wrap;rounded=0;fontSize=14;fontFamily=Helvetica;" parent="1" vertex="1">
          <mxGeometry x="442.5" y="210" width="90" height="30" as="geometry" />
        </mxCell>
        <mxCell id="BSHCZzDnnlXFaa0tmxAZ-21" value="元数据" style="text;html=1;align=center;verticalAlign=middle;whiteSpace=wrap;rounded=0;fontSize=14;fontFamily=Helvetica;" parent="1" vertex="1">
          <mxGeometry x="260" y="210" width="90" height="30" as="geometry" />
        </mxCell>
        <mxCell id="BSHCZzDnnlXFaa0tmxAZ-22" value="对比" style="text;html=1;align=center;verticalAlign=middle;whiteSpace=wrap;rounded=0;fontSize=14;fontFamily=Helvetica;" parent="1" vertex="1">
          <mxGeometry x="310.25" y="270" width="90" height="30" as="geometry" />
        </mxCell>
        <mxCell id="QXk6fbLhmlBQjmL-5vhj-1" value="" style="outlineConnect=0;fontColor=#232F3E;gradientColor=none;fillColor=#01A88D;strokeColor=none;dashed=0;verticalLabelPosition=bottom;verticalAlign=top;align=center;html=1;fontSize=12;fontStyle=0;aspect=fixed;pointerEvents=1;shape=mxgraph.aws4.sagemaker_model;" parent="1" vertex="1">
          <mxGeometry x="368.5" y="40" width="48" height="48" as="geometry" />
        </mxCell>
        <mxCell id="QXk6fbLhmlBQjmL-5vhj-6" style="edgeStyle=orthogonalEdgeStyle;rounded=0;orthogonalLoop=1;jettySize=auto;html=1;entryX=0.5;entryY=0;entryDx=0;entryDy=0;" parent="1" source="QXk6fbLhmlBQjmL-5vhj-5" target="BSHCZzDnnlXFaa0tmxAZ-10" edge="1">
          <mxGeometry relative="1" as="geometry" />
        </mxCell>
        <mxCell id="QXk6fbLhmlBQjmL-5vhj-5" value="LLMs" style="text;html=1;align=center;verticalAlign=middle;whiteSpace=wrap;rounded=0;fontSize=14;fontFamily=Helvetica;" parent="1" vertex="1">
          <mxGeometry x="362.5" y="88" width="60" height="30" as="geometry" />
        </mxCell>
        <mxCell id="QXk6fbLhmlBQjmL-5vhj-7" value="对比" style="text;html=1;align=center;verticalAlign=middle;whiteSpace=wrap;rounded=0;fontSize=14;fontFamily=Helvetica;" parent="1" vertex="1">
          <mxGeometry x="317.75" y="180" width="75" height="30" as="geometry" />
        </mxCell>
      </root>
    </mxGraphModel>
  </diagram>
</mxfile>
